<svg xmlns="http://www.w3.org/2000/svg" width="81.368" height="73.922" viewBox="0 0 81.368 73.922">
  <g id="Group_386" data-name="Group 386" transform="translate(-141.147 -141.431)">
    <g id="Group_353" data-name="Group 353" transform="translate(144.982 186.757)">
      <line id="Line_109" data-name="Line 109" y1="2.215" transform="translate(0 26.381)" fill="none" stroke="#617ab9" stroke-width="2"/>
      <line id="Line_110" data-name="Line 110" y1="2.215" transform="translate(6.634 26.381)" fill="none" stroke="#617ab9" stroke-width="2"/>
      <line id="Line_111" data-name="Line 111" y1="2.215" transform="translate(13.268 26.381)" fill="none" stroke="#617ab9" stroke-width="2"/>
      <line id="Line_112" data-name="Line 112" y1="3.673" transform="translate(0 20.493)" fill="none" stroke="#617ab9" stroke-width="2"/>
      <line id="Line_113" data-name="Line 113" y1="5.907" transform="translate(6.634 18.259)" fill="none" stroke="#617ab9" stroke-width="2"/>
      <line id="Line_114" data-name="Line 114" y1="14.849" transform="translate(13.268 9.317)" fill="none" stroke="#617ab9" stroke-width="2"/>
      <line id="Line_115" data-name="Line 115" y1="2.215" transform="translate(19.902 26.381)" fill="none" stroke="#617ab9" stroke-width="2"/>
      <line id="Line_116" data-name="Line 116" y1="2.215" transform="translate(26.537 26.381)" fill="none" stroke="#617ab9" stroke-width="2"/>
      <line id="Line_117" data-name="Line 117" y1="2.215" transform="translate(33.171 26.381)" fill="none" stroke="#617ab9" stroke-width="2"/>
      <line id="Line_118" data-name="Line 118" y1="19.425" transform="translate(19.902 4.741)" fill="none" stroke="#617ab9" stroke-width="2"/>
      <line id="Line_119" data-name="Line 119" y1="24.165" transform="translate(26.537)" fill="none" stroke="#617ab9" stroke-width="2"/>
      <line id="Line_120" data-name="Line 120" y1="19.541" transform="translate(33.171 4.625)" fill="none" stroke="#617ab9" stroke-width="2"/>
      <line id="Line_121" data-name="Line 121" y1="2.215" transform="translate(39.805 26.381)" fill="none" stroke="#617ab9" stroke-width="2"/>
      <line id="Line_122" data-name="Line 122" y1="2.215" transform="translate(46.439 26.381)" fill="none" stroke="#617ab9" stroke-width="2"/>
      <line id="Line_123" data-name="Line 123" y1="2.215" transform="translate(53.073 26.381)" fill="none" stroke="#617ab9" stroke-width="2"/>
      <line id="Line_124" data-name="Line 124" y1="15.405" transform="translate(39.805 8.76)" fill="none" stroke="#617ab9" stroke-width="2"/>
      <line id="Line_125" data-name="Line 125" y1="20.255" transform="translate(46.439 3.911)" fill="none" stroke="#617ab9" stroke-width="2"/>
      <line id="Line_126" data-name="Line 126" y1="15.41" transform="translate(53.073 8.756)" fill="none" stroke="#617ab9" stroke-width="2"/>
    </g>
    <g id="Group_354" data-name="Group 354" transform="translate(142.147 142.431)">
      <path id="Path_1042" data-name="Path 1042" d="M152.917,146.431A10.771,10.771,0,1,0,163.688,157.2H152.917Z" transform="translate(-142.147 -141.903)" fill="none" stroke="#617ab9" stroke-width="2"/>
      <path id="Path_1043" data-name="Path 1043" d="M155.662,142.431V153.2h10.771A10.771,10.771,0,0,0,155.662,142.431Z" transform="translate(-140.365 -142.431)" fill="none" stroke="#617ab9" stroke-width="2"/>
    </g>
    <g id="Group_355" data-name="Group 355" transform="translate(142.147 153.229)">
      <path id="Path_1044" data-name="Path 1044" d="M149.785,193.782a3.819,3.819,0,1,1-3.819-3.819A3.82,3.82,0,0,1,149.785,193.782Z" transform="translate(-142.147 -146.96)" fill="none" stroke="#617ab9" stroke-width="2"/>
      <circle id="Ellipse_27" data-name="Ellipse 27" cx="3.819" cy="3.819" r="3.819" transform="translate(28.253 14.75)" fill="none" stroke="#617ab9" stroke-width="2"/>
      <circle id="Ellipse_28" data-name="Ellipse 28" cx="3.819" cy="3.819" r="3.819" transform="translate(41.045 27.542)" fill="none" stroke="#617ab9" stroke-width="2"/>
      <circle id="Ellipse_29" data-name="Ellipse 29" cx="3.819" cy="3.819" r="3.819" transform="translate(68.588)" fill="none" stroke="#617ab9" stroke-width="2"/>
      <line id="Line_127" data-name="Line 127" y1="22.852" x2="22.852" transform="translate(6.519 21.27)" fill="none" stroke="#617ab9" stroke-width="2"/>
      <line id="Line_128" data-name="Line 128" x2="7.391" y2="7.391" transform="translate(34.773 21.27)" fill="none" stroke="#617ab9" stroke-width="2"/>
      <line id="Line_129" data-name="Line 129" y1="2.81" x2="2.81" transform="translate(66.896 6.52)" fill="none" stroke="#617ab9" stroke-width="2"/>
      <line id="Line_130" data-name="Line 130" y1="2.679" x2="2.679" transform="translate(47.565 25.982)" fill="none" stroke="#617ab9" stroke-width="2"/>
    </g>
    <line id="Line_131" data-name="Line 131" y1="2.215" transform="translate(211.323 213.138)" fill="none" stroke="#617ab9" stroke-width="2"/>
    <line id="Line_132" data-name="Line 132" y1="2.215" transform="translate(204.689 213.138)" fill="none" stroke="#617ab9" stroke-width="2"/>
    <line id="Line_133" data-name="Line 133" y1="2.215" transform="translate(217.957 213.138)" fill="none" stroke="#617ab9" stroke-width="2"/>
    <line id="Line_134" data-name="Line 134" y1="12.142" transform="translate(204.689 198.781)" fill="none" stroke="#617ab9" stroke-width="2"/>
    <line id="Line_135" data-name="Line 135" y1="3.292" transform="translate(211.323 207.631)" fill="none" stroke="#617ab9" stroke-width="2"/>
    <line id="Line_136" data-name="Line 136" y1="4.572" transform="translate(217.957 206.35)" fill="none" stroke="#617ab9" stroke-width="2"/>
    <path id="Path_1045" data-name="Path 1045" d="M185.461,176.242a12.708,12.708,0,1,1,17.249,5.046A12.708,12.708,0,0,1,185.461,176.242Z" transform="translate(5.506 1.978)" fill="none" stroke="#617ab9" stroke-width="2"/>
    <path id="Path_1046" data-name="Path 1046" d="M203.047,177.712l1.9,3.478-4.294,2.35-1.9-3.478" transform="translate(7.466 4.653)" fill="none" stroke="#617ab9" stroke-width="2"/>
    <path id="Path_1047" data-name="Path 1047" d="M198.883,184.208l7.807-4.273,6.781,12.47a4.447,4.447,0,0,1-1.767,6.039h0a4.449,4.449,0,0,1-6.04-1.767Z" transform="translate(7.483 4.946)" fill="none" stroke="#617ab9" stroke-width="2"/>
    <path id="Path_1048" data-name="Path 1048" d="M189.606,172.886a7.259,7.259,0,0,1,2.883-9.852" transform="translate(6.142 2.717)" fill="none" stroke="#617ab9" stroke-width="2"/>
  </g>
</svg>
